<mxfile host="app.diagrams.net" modified="2024-04-01T16:56:55.445Z" agent="Mozilla/5.0 (Windows NT 10.0; Win64; x64) AppleWebKit/537.36 (KHTML, like Gecko) Chrome/123.0.0.0 Safari/537.36" etag="VUoAXzkqCpJQprpn3tf-" version="24.2.1" type="device">
  <diagram name="Page-1" id="b3zvjbANU54kzBuyWCkq">
    <mxGraphModel dx="1050" dy="522" grid="1" gridSize="10" guides="1" tooltips="1" connect="1" arrows="1" fold="1" page="1" pageScale="1" pageWidth="850" pageHeight="1100" math="0" shadow="0">
      <root>
        <mxCell id="0" />
        <mxCell id="1" parent="0" />
        <mxCell id="cHeDTnT-B8VR5-G8_JyS-5" value="if&lt;div&gt;5 &amp;lt;= time &amp;lt; 12&lt;/div&gt;" style="edgeStyle=orthogonalEdgeStyle;rounded=0;orthogonalLoop=1;jettySize=auto;html=1;" edge="1" parent="1" source="cHeDTnT-B8VR5-G8_JyS-1" target="cHeDTnT-B8VR5-G8_JyS-6">
          <mxGeometry relative="1" as="geometry">
            <mxPoint x="160" y="220" as="targetPoint" />
            <mxPoint as="offset" />
          </mxGeometry>
        </mxCell>
        <mxCell id="cHeDTnT-B8VR5-G8_JyS-7" value="if&lt;div&gt;12 &amp;lt;= time &amp;lt; 4&lt;/div&gt;" style="edgeStyle=orthogonalEdgeStyle;rounded=0;orthogonalLoop=1;jettySize=auto;html=1;exitX=0.25;exitY=1;exitDx=0;exitDy=0;" edge="1" parent="1" source="cHeDTnT-B8VR5-G8_JyS-1" target="cHeDTnT-B8VR5-G8_JyS-8">
          <mxGeometry relative="1" as="geometry">
            <mxPoint x="290" y="240" as="targetPoint" />
          </mxGeometry>
        </mxCell>
        <mxCell id="cHeDTnT-B8VR5-G8_JyS-10" value="if&lt;div&gt;4 &amp;lt;= time &amp;lt; 8&lt;/div&gt;" style="edgeStyle=orthogonalEdgeStyle;rounded=0;orthogonalLoop=1;jettySize=auto;html=1;exitX=0.75;exitY=1;exitDx=0;exitDy=0;" edge="1" parent="1" source="cHeDTnT-B8VR5-G8_JyS-1">
          <mxGeometry x="-0.0031" relative="1" as="geometry">
            <mxPoint x="490" y="210" as="targetPoint" />
            <mxPoint as="offset" />
          </mxGeometry>
        </mxCell>
        <mxCell id="cHeDTnT-B8VR5-G8_JyS-12" value="if&lt;div&gt;8 &amp;lt;= time &amp;lt;5&lt;/div&gt;" style="edgeStyle=orthogonalEdgeStyle;rounded=0;orthogonalLoop=1;jettySize=auto;html=1;exitX=1;exitY=0.5;exitDx=0;exitDy=0;" edge="1" parent="1">
          <mxGeometry x="-0.0016" relative="1" as="geometry">
            <mxPoint x="640" y="180" as="targetPoint" />
            <mxPoint x="410" y="90" as="sourcePoint" />
            <Array as="points">
              <mxPoint x="641" y="90" />
            </Array>
            <mxPoint as="offset" />
          </mxGeometry>
        </mxCell>
        <mxCell id="cHeDTnT-B8VR5-G8_JyS-1" value="check time" style="rounded=0;whiteSpace=wrap;html=1;" vertex="1" parent="1">
          <mxGeometry x="330" y="60" width="120" height="60" as="geometry" />
        </mxCell>
        <mxCell id="cHeDTnT-B8VR5-G8_JyS-6" value="send message&amp;nbsp;&lt;div&gt;&quot;Good Morning&quot;&lt;/div&gt;" style="rounded=0;whiteSpace=wrap;html=1;" vertex="1" parent="1">
          <mxGeometry x="100" y="190" width="120" height="60" as="geometry" />
        </mxCell>
        <mxCell id="cHeDTnT-B8VR5-G8_JyS-8" value="send message&lt;div&gt;&quot;Good Afternoon&quot;&lt;/div&gt;" style="rounded=0;whiteSpace=wrap;html=1;" vertex="1" parent="1">
          <mxGeometry x="230" y="210" width="120" height="60" as="geometry" />
        </mxCell>
        <mxCell id="cHeDTnT-B8VR5-G8_JyS-11" value="send message&lt;div&gt;&quot;Good Evening&quot;&lt;/div&gt;" style="rounded=0;whiteSpace=wrap;html=1;" vertex="1" parent="1">
          <mxGeometry x="425" y="210" width="120" height="60" as="geometry" />
        </mxCell>
        <mxCell id="cHeDTnT-B8VR5-G8_JyS-13" value="send message&lt;div&gt;&quot;Good Night&quot;&lt;/div&gt;" style="rounded=0;whiteSpace=wrap;html=1;" vertex="1" parent="1">
          <mxGeometry x="580" y="180" width="120" height="60" as="geometry" />
        </mxCell>
      </root>
    </mxGraphModel>
  </diagram>
</mxfile>
